# xmcd CD database file
#
# Track frame offsets:
#	150
#	11215
#	24822
#	39610
#	55400
#	65862
#	80465
#	94465
#	106660
#	118427
#	130402
#	140489
#
# Disc length: 2023 seconds
#
# Revision: 1
# Processed by: cddbd v1.5.2PL0 Copyright (c) Steve Scherf et al.
# Submitted via: CDex 1.70beta2
#
DISCID=ae07e50c
DTITLE=Willie Nelson - Greatest Hits Gold - Disc 3
DYEAR=2008
DGENRE=Country
TTITLE0=Good Times
TTITLE1=Good Hearted Woman
TTITLE2=Bloody Mary Morning
TTITLE3=What Can You Do To Me Now?
TTITLE4=December Day
TTITLE5=Yesterday's Wine
TTITLE6=If You Can Touch Her At All
TTITLE7=You Ought To Hear Me Cry
TTITLE8=One In A Row
TTITLE9=Once More With Feeling
TTITLE10=Bring Me Sunshine
TTITLE11=Mammas, Don't Let Your Babies Grow Up To Be Cowboys
EXTD=YEAR: 2008
EXTT0=
EXTT1=
EXTT2=
EXTT3=
EXTT4=
EXTT5=
EXTT6=
EXTT7=
EXTT8=
EXTT9=
EXTT10=
EXTT11=
PLAYORDER=
